<svg width="10" height="6" viewBox="0 0 10 6" fill="none" xmlns="http://www.w3.org/2000/svg">
<path d="M7 1.5C6.71875 1.5 6.5 1.28125 6.5 1C6.5 0.734375 6.71875 0.5 7 0.5H9.5C9.76562 0.5 10 0.734375 10 1V3.5C10 3.78125 9.76562 4 9.5 4C9.21875 4 9 3.78125 9 3.5V2.21875L6.34375 4.85938C6.15625 5.0625 5.82812 5.0625 5.64062 4.85938L3.98438 3.21875L1.84375 5.35938C1.65625 5.5625 1.32812 5.5625 1.14062 5.35938C0.9375 5.17188 0.9375 4.84375 1.14062 4.65625L3.64062 2.15625C3.82812 1.95312 4.15625 1.95312 4.34375 2.15625L6 3.79688L8.28125 1.5H7Z" fill="#616161"/>
</svg>
